Coordinates
version=1
nRows=11
nColumns=63
inDegrees=yes

Units are S.I. units (second, meters, Newtons, ...)
If the header above contains a line with 'inDegrees', this indicates whether rotational values are in degrees (yes) or radians (no).

endheader
time	pelvis_tilt	pelvis_list	pelvis_rotation	pelvis_tx	pelvis_ty	pelvis_tz	hip_flexion_r	hip_adduction_r	hip_rotation_r	knee_angle_r	knee_angle_r_beta	ankle_angle_r	subtalar_angle_r	mtp_angle_r	hip_flexion_l	hip_adduction_l	hip_rotation_l	knee_angle_l	knee_angle_l_beta	ankle_angle_l	subtalar_angle_l	mtp_angle_l	L5_S1_Flex_Ext	L5_S1_Lat_Bending	L5_S1_axial_rotation	L4_L5_Flex_Ext	L4_L5_Lat_Bending	L4_L5_axial_rotation	L3_L4_Flex_Ext	L3_L4_Lat_Bending	L3_L4_axial_rotation	L2_L3_Flex_Ext	L2_L3_Lat_Bending	L2_L3_axial_rotation	L1_L2_Flex_Ext	L1_L2_Lat_Bending	L1_L2_axial_rotation	L1_T12_Flex_Ext	L1_T12_Lat_Bending	L1_T12_axial_rotation	Abs_r3	Abs_r2	Abs_r1	Abs_t1	Abs_t2	neck_flexion	neck_bending	neck_rotation	arm_flex_r	arm_add_r	arm_rot_r	elbow_flex_r	pro_sup_r	wrist_flex_r	wrist_dev_r	arm_flex_l	arm_add_l	arm_rot_l	elbow_flex_l	pro_sup_l	wrist_flex_l	wrist_dev_l
      0.00000000	     -4.66752194	     -5.80845011	     99.55447033	      0.08731748	      0.97670024	      0.47491030	     -3.02374137	     -2.12970870	     -8.63900038	      6.12433341	      0.10688978	     19.48027153	      9.87894901	      0.00000000	     -2.77846952	      2.48054757	      4.24030748	      1.44150343	      0.02515898	     20.41881413	     -0.29035046	      0.00000000	      0.00983953	     -0.16128626	     -0.23013578	      0.01827300	     -0.21451073	     -0.24451927	      0.01616537	     -0.39215141	     -0.24451927	      0.01124560	     -0.39215141	     -0.20136881	      0.00913699	     -0.32889494	     -0.18698533	      0.00562231	     -0.24983242	     -0.17260184	      0.07028279	     -1.82450244	     -1.27994619	      0.00000000	      0.00000000	     22.08769308	      0.45344972	     -0.82661353	      0.08238960	    -17.09453822	     32.52221874	     79.81594748	     83.31078048	     21.24754771	     -3.14242768	      4.78443786	    -16.72938722	     37.62772067	     79.52635880	     89.38337194	     19.48567617	      1.26005021
      0.01694915	     -4.76176552	     -5.55061574	     98.49676565	      0.08972981	      0.97676525	      0.47280619	     -3.57176472	     -2.11693791	     -7.29059802	      5.40839654	      0.09439433	     19.78795876	     10.03307464	      0.00000000	     -3.40678664	      2.56562682	      3.34443630	      1.31568540	      0.02296304	     20.71238695	     -0.60178843	      0.00000000	     -0.00467214	     -0.18048524	      0.05766828	     -0.00867663	     -0.24004537	      0.06127254	     -0.00767586	     -0.43883182	      0.06127254	     -0.00533979	     -0.43883182	      0.05045974	     -0.00433855	     -0.36804550	      0.04685547	     -0.00266966	     -0.27957164	      0.04325121	     -0.03337262	     -2.04168514	      0.32073365	      0.00000000	      0.00000000	     22.50807600	      0.01245247	     -1.33190514	     -0.61312147	    -17.54624564	     36.15453265	     78.60358150	     70.77679245	     18.68663111	     -1.09671931	      7.11977517	    -17.62914757	     39.90667888	     79.05989266	     89.50781126	     15.27088347	      1.12500064
      0.03389831	     -4.78028989	     -5.31585820	     97.56501885	      0.09151957	      0.97675028	      0.47137983	     -3.97829090	     -2.08160488	     -5.88856997	      4.88426250	      0.08524646	     19.89877412	      9.81906948	      0.00000000	     -3.90999056	      2.59928125	      2.31078663	      1.26810755	      0.02213265	     20.83115310	     -0.55283273	      0.00000000	     -0.01201879	     -0.18504846	      0.33246386	     -0.02232010	     -0.24611445	      0.35324285	     -0.01974568	     -0.44992682	      0.35324285	     -0.01373628	     -0.44992682	      0.29090588	     -0.01116065	     -0.37735082	      0.27012689	     -0.00686754	     -0.28664006	      0.24934790	     -0.08584904	     -2.09330517	      1.84906425	      0.00000000	      0.00000000	     22.57900121	     -0.48492803	     -2.02134255	     -0.70983018	    -17.73041408	     39.25800646	     77.31514014	     64.00207330	     15.91934658	     -1.26690136	      9.11297675	    -17.86307607	     41.84836280	     77.98171513	     89.54321223	     14.17705728	      2.11067308
      0.05084746	     -4.74463830	     -5.06543888	     97.13056853	      0.09231125	      0.97676427	      0.47045991	     -4.42986126	     -1.99951070	     -5.35485598	      4.38463476	      0.07652631	     19.87067605	      9.96887471	      0.00000000	     -4.33255688	      2.56995948	      1.91098101	      1.27412707	      0.02223771	     20.73945440	     -0.79722746	      0.00000000	     -0.01832867	     -0.17341087	      0.48041121	     -0.03403817	     -0.23063646	      0.51043691	     -0.03011217	     -0.42163119	      0.51043691	     -0.02094783	     -0.42163119	      0.42035981	     -0.01702000	     -0.35361945	      0.39033411	     -0.01047300	     -0.26861344	      0.36030841	     -0.13091983	     -1.96165846	      2.67190303	      0.00000000	      0.00000000	     22.32439672	     -0.88930436	     -2.05433503	     -0.32329222	    -17.30798830	     40.98216575	     75.53254507	     63.45380165	     15.58470366	     -1.08987538	     10.56279451	    -17.72585623	     43.36264812	     76.55533053	     89.53871986	     14.86742695	      3.37397569
      0.06779661	     -4.66996626	     -4.81791328	     96.53939082	      0.09304685	      0.97659368	      0.46997192	     -4.71229655	     -1.89578629	     -3.52442337	      4.14719019	      0.07238212	     19.73173450	      8.55824927	      0.00000000	     -4.74100234	      2.53220477	      1.77638067	      1.24018319	      0.02164528	     20.46301506	     -1.54678298	      0.00000000	     -0.02947092	     -0.16133813	      0.64218507	     -0.05473045	     -0.21457971	      0.68232164	     -0.04841778	     -0.39227752	      0.68232164	     -0.03368232	     -0.39227752	      0.56191194	     -0.02736670	     -0.32900071	      0.52177537	     -0.01683969	     -0.24991276	      0.48163880	     -0.21050786	     -1.82508916	      3.57164072	      0.00000000	      0.00000000	     22.27536470	     -1.39774079	     -2.88537493	      0.56981712	    -16.92727882	     43.23950230	     73.70183622	     62.08497655	     14.18065383	     -1.78554493	     11.24568232	    -16.54374475	     42.56952694	     74.87671548	     89.47817799	     21.91323140	      9.05879514
      0.08474576	     -4.55501712	     -4.62289850	     96.28926856	      0.09312014	      0.97648970	      0.46978662	     -4.95248424	     -1.75036043	     -2.28576680	      3.93966038	      0.06876005	     19.39215365	      7.27239345	      0.00000000	     -5.04144163	      2.45016103	      2.66942517	      1.21250900	      0.02116227	     19.87907215	     -3.35178878	      0.00000000	     -0.02605325	     -0.13733902	      0.73360001	     -0.04838349	     -0.18266090	      0.77945001	     -0.04280288	     -0.33392610	      0.77945001	     -0.02977626	     -0.33392610	      0.64190001	     -0.02419305	     -0.28006173	      0.59605001	     -0.01488683	     -0.21273814	      0.55020000	     -0.18609574	     -1.55360647	      4.08006315	      0.00000000	      0.00000000	     21.97201864	     -1.92269434	     -3.18789602	      1.53291785	    -16.04977334	     43.89159354	     71.35928727	     66.10552013	     15.35692818	     -1.75129849	     11.79956542	    -15.44083497	     42.75374113	     72.63270248	     89.37512009	     25.90125962	     11.80048094
      0.10169492	     -4.41949713	     -4.45091278	     96.22808454	      0.09267332	      0.97639888	      0.46991837	     -5.11058472	     -1.62709516	     -1.99616847	      3.89542067	      0.06798792	     19.23326894	      6.99333128	      0.00000000	     -5.24211816	      2.34486743	      3.07724300	      1.23074977	      0.02148064	     19.52684131	     -4.32069930	      0.00000000	     -0.01824812	     -0.10716754	      0.78792601	     -0.03388858	     -0.14253283	      0.83717139	     -0.02997983	     -0.26056717	      0.83717139	     -0.02085577	     -0.26056717	      0.68943526	     -0.01694520	     -0.21853606	      0.64018989	     -0.01042697	     -0.16600253	      0.59094451	     -0.13034448	     -1.21230070	      4.38220811	      0.00000000	      0.00000000	     21.96769954	     -2.43612415	     -3.31212945	      2.60235777	    -15.18633905	     44.42480061	     69.22643119	     69.78836878	     15.65141761	     -0.75581307	     12.52216792	    -14.35040379	     43.52157305	     69.87987287	     89.25166276	     28.55063658	     13.14182505
      0.11864407	     -4.28761653	     -4.33301967	     96.43552667	      0.09181698	      0.97627426	      0.47035244	     -5.20089832	     -1.49356656	     -1.88850861	      3.93708514	      0.06871510	     19.10835922	      6.59372965	      0.00000000	     -5.34788197	      2.23815576	      4.35677997	      1.25024106	      0.02182082	     18.99580677	     -6.22900928	      0.00000000	     -0.00270457	     -0.07787566	      0.79186456	     -0.00502267	     -0.10357463	      0.84135610	     -0.00444335	     -0.18934689	      0.84135610	     -0.00309106	     -0.18934689	      0.69288149	     -0.00251147	     -0.15880406	      0.64338996	     -0.00154539	     -0.12062941	      0.59389842	     -0.01931850	     -0.88094510	      4.40411314	      0.00000000	      0.00000000	     22.18592654	     -2.80482091	     -3.22044771	      3.63567832	    -14.13301842	     44.04070468	     67.09103128	     76.81777632	     16.60971648	      0.15248931	     13.26655788	    -13.37433327	     44.73306732	     67.06323056	     89.11189642	     29.25465674	     13.94300235
      0.13559322	     -4.20333898	     -4.17218723	     96.76993801	      0.09081200	      0.97624663	      0.47111874	     -5.29933069	     -1.40013770	     -2.22312151	      4.07819532	      0.07117794	     19.13966946	      6.51194638	      0.00000000	     -5.44501612	      2.15703060	      5.30599077	      1.32118299	      0.02305899	     18.72258303	     -7.48193478	      0.00000000	     -0.00256353	     -0.05632202	      0.77908685	     -0.00476073	     -0.07490828	      0.82777978	     -0.00421162	     -0.13694135	      0.82777978	     -0.00292986	     -0.13694135	      0.68170100	     -0.00238049	     -0.11485186	      0.63300807	     -0.00146480	     -0.08724280	      0.58431514	     -0.01831102	     -0.63712591	      4.33304736	      0.00000000	      0.00000000	     22.69270911	     -3.04375089	     -3.14131060	      4.73571304	    -13.28745722	     44.16013587	     65.17737971	     81.30588563	     16.06972865	      1.13938583	     14.18869565	    -12.49753056	     46.34061736	     64.12315703	     88.98843311	     28.76145947	     14.03109189
      0.15254237	     -4.16343402	     -4.24683197	     96.99784243	      0.09022274	      0.97581133	      0.47163446	     -5.18740697	     -1.37300804	     -2.23264808	      4.15243338	      0.07247363	     19.39917299	      6.45806821	      0.00000000	     -5.33017734	      2.12703837	      5.41252361	      1.31950919	      0.02302978	     18.79131980	     -7.54858986	      0.00000000	      0.03039810	     -0.05165393	      0.76229535	      0.05645231	     -0.06869973	      0.80993881	      0.04994104	     -0.12559136	      0.80993881	      0.03474199	     -0.12559136	      0.66700843	      0.02822768	     -0.10533269	      0.61936497	      0.01736947	     -0.08001194	      0.57172151	      0.21713059	     -0.58431958	      4.23965806	      0.00000000	      0.00000000	     23.42232228	     -3.09818430	     -3.08641219	      5.54624895	    -12.27716446	     44.37284429	     62.89609931	     81.75819684	     15.53504724	      1.89784233	     14.44176120	    -11.57406303	     46.80301290	     61.46105311	     89.02139917	     28.15611085	     14.71218302
      0.16949153	     -4.13644987	     -4.11926486	     97.75812381	      0.08890142	      0.97586979	      0.47306213	     -5.11503004	     -1.28665931	     -2.86174975	      4.62414405	      0.08070654	     19.83567393	      6.15451446	      0.00000000	     -5.21963231	      2.05288589	      6.02981900	      1.54621353	      0.02698652	     18.92240731	     -7.68533471	      0.00000000	      0.01194567	     -0.04750348	      0.67249769	      0.02218431	     -0.06317963	      0.71452880	      0.01962554	     -0.11549996	      0.71452880	      0.01365271	     -0.11549996	      0.58843548	      0.01109275	     -0.09686909	      0.54640438	      0.00682576	     -0.07358289	      0.50437327	      0.08532674	     -0.53736886	      3.74023043	      0.00000000	      0.00000000	     24.08991885	     -3.01142077	     -2.99454801	      6.64453503	    -11.60996553	     44.97734187	     60.84689931	     82.99436395	     14.56985252	      3.10771756	     15.49540413	    -10.70849525	     48.31615078	     58.47572754	     88.83832819	     27.68543264	     15.33175905
